<svg width="31" height="31" viewBox="0 0 31 31" fill="none" xmlns="http://www.w3.org/2000/svg">
<path d="M19.6061 20.2999L16.2439 29.5472C16.161 29.7704 16.0119 29.9628 15.8165 30.0987C15.6211 30.2346 15.3888 30.3074 15.1508 30.3074C14.9128 30.3074 14.6805 30.2346 14.4851 30.0987C14.2897 29.9628 14.1406 29.7704 14.0577 29.5472L10.7013 20.2999C10.643 20.1408 10.5508 19.9963 10.4309 19.8765C10.3111 19.7567 10.1667 19.6644 10.0076 19.6061L0.760209 16.2439C0.537075 16.161 0.344634 16.0119 0.208737 15.8165C0.072841 15.6211 0 15.3888 0 15.1508C0 14.9128 0.072841 14.6805 0.208737 14.4851C0.344634 14.2897 0.537075 14.1406 0.760209 14.0577L10.0076 10.7013C10.1667 10.643 10.3111 10.5508 10.4309 10.4309C10.5508 10.3111 10.643 10.1667 10.7013 10.0076L14.0636 0.760209C14.1464 0.537075 14.2955 0.344634 14.4909 0.208737C14.6863 0.072841 14.9186 0 15.1566 0C15.3946 0 15.6269 0.072841 15.8223 0.208737C16.0177 0.344634 16.1669 0.537075 16.2497 0.760209L19.612 10.0076C19.6703 10.1667 19.7625 10.3111 19.8823 10.4309C20.0021 10.5508 20.1466 10.643 20.3057 10.7013L29.5531 14.0636C29.7762 14.1464 29.9686 14.2955 30.1045 14.4909C30.2404 14.6863 30.3133 14.9186 30.3133 15.1566C30.3133 15.3946 30.2404 15.6269 30.1045 15.8223C29.9686 16.0177 29.7762 16.1669 29.5531 16.2497L20.3057 19.612C20.1461 19.6689 20.0009 19.76 19.88 19.8788C19.7592 19.9976 19.6658 20.1413 19.6061 20.2999Z" fill="#850D00"/>
</svg>
