<svg width="406" height="313" viewBox="0 0 406 313" fill="none" xmlns="http://www.w3.org/2000/svg">
<path d="M296.403 177.905C296.403 186.144 289.715 192.826 281.458 192.826C289.71 192.826 296.403 199.504 296.403 207.747C296.403 199.509 303.091 192.826 311.348 192.826C303.096 192.826 296.403 186.144 296.403 177.905Z" fill="#850D00"/>
<path d="M194.84 59.574H183.308V197.691H194.84V59.574Z" fill="#850D00"/>
<path d="M247.077 170.297C247.225 170.401 247.435 170.292 247.435 170.111V75.8914C247.435 64.3924 236.275 55.1922 224.324 58.6143C216.573 60.8323 211.386 68.1286 211.386 76.177V197.65C211.386 197.669 211.396 197.688 211.424 197.688C215.062 197.688 218.313 196.003 220.415 193.357C221.983 191.4 222.918 188.916 222.918 186.213V125.676C222.932 125.667 222.937 125.657 222.951 125.638C228.552 125.214 233.019 123.406 235.846 119.584C235.875 119.593 235.865 119.593 235.894 119.598V159.911C235.894 163.576 238.401 166.732 241.948 167.66C243.821 168.16 245.571 169.264 247.077 170.297ZM235.889 101.203C235.889 104.777 234.44 107.999 232.099 110.341C229.763 112.673 226.526 114.12 222.951 114.12C222.937 114.12 222.913 114.11 222.913 114.082V76.1104C222.913 72.5122 225.749 69.4328 229.353 69.409C232.981 69.3757 235.884 72.2694 235.884 75.8867V101.203H235.889Z" fill="#850D00"/>
<path d="M275.5 70.8437C276.115 71.0436 276.706 71.2769 277.283 71.5196C284.062 74.4039 288.333 80.101 288.476 86.8215C288.481 86.9357 288.481 87.0547 288.481 87.1689V160.256C288.634 163.778 291.084 166.772 294.526 167.672C296.404 168.162 298.153 169.276 299.655 170.304C299.808 170.408 300.012 170.304 300.012 170.123V87.1642C300.012 72.8856 288.071 61.6388 274.962 59.2971C273.312 58.9973 271.639 58.8497 269.971 58.8497H263.964V197.69H275.496V70.8437H275.5Z" fill="#850D00"/>
<path d="M334.576 199.371C344.429 199.371 352.595 191.208 352.595 181.375V161.219H341.064V181.375C341.064 184.978 338.18 187.853 334.576 187.853C330.972 187.853 328.088 184.978 328.088 181.375V77.5651C328.088 73.9669 330.972 71.0873 334.576 71.0873C337.941 71.0873 341.064 71.0873 341.064 71.0873V95.3181H352.595V59.574C352.595 59.574 337.941 59.574 334.576 59.574C324.722 59.574 316.552 67.7271 316.552 77.5651V181.375C316.547 191.213 324.722 199.371 334.576 199.371Z" fill="#850D00"/>
<path d="M387.156 57.8904C377.307 57.8904 369.141 66.0482 369.141 75.8909V197.687H380.673V125.642H393.649V197.692H405.185V75.8957C405.18 66.053 397.009 57.8904 387.156 57.8904ZM393.644 114.119H380.668V75.8909C380.668 72.288 383.552 69.4037 387.151 69.4037C390.76 69.4037 393.639 72.2832 393.639 75.8909V114.119H393.644Z" fill="#850D00"/>
<path d="M141.877 213.493C141.324 213.493 140.766 213.541 140.227 213.627C140.208 213.641 140.18 213.641 140.17 213.641C138.988 213.812 137.877 214.16 136.852 214.669C137.372 213.246 137.853 211.799 138.278 210.343C139.493 206.197 140.323 201.942 140.738 197.692H148.746C158.6 197.692 166.766 189.539 166.766 179.706V132.063C166.766 127.018 164.358 122.943 161.717 119.821C164.844 116.699 166.766 112.625 166.766 107.584V77.5661C166.766 67.7281 158.6 59.575 148.746 59.575H140.48C140.051 56.291 139.384 53.0545 138.483 49.8846C136.781 43.8448 134.24 38.0524 130.917 32.6694C128.119 28.1145 124.768 23.8786 120.964 20.0757C120.959 20.0709 120.95 20.0614 120.945 20.0567C120.759 19.871 120.573 19.6902 120.387 19.5141C107.483 6.9156 90.4738 0 72.3971 0C61.2804 0 50.2399 2.71769 40.4675 7.85799C35.0616 10.6804 30.0419 14.2453 25.5323 18.4527C24.331 19.5759 23.2632 20.6468 22.2764 21.713C22.0333 21.97 21.7949 22.2222 21.5804 22.4745C21.1991 22.8933 20.8129 23.3265 20.4316 23.7643C20.1408 24.1023 19.8452 24.4545 19.5544 24.8019C19.5163 24.8495 19.4782 24.8876 19.4496 24.9352C19.4448 24.9399 19.44 24.9447 19.4353 24.9542C18.8823 25.5016 18.3388 26.0584 17.8097 26.6296L17.9718 26.7771C17.8669 26.9247 17.7525 27.077 17.6428 27.2198C17.3282 27.6291 17.0184 28.0432 16.718 28.4572C16.5321 28.719 16.3462 28.976 16.1651 29.2378L15.4977 30.1992C15.4691 30.2373 15.4405 30.2754 15.4214 30.3182L15.4071 30.3372C11.05 35.6108 7.48903 41.5602 4.88622 47.9951C1.73521 55.8055 0 64.3298 0 73.2634V196.412C0 215.074 7.57961 231.979 19.8309 244.211C31.9678 256.344 48.7049 263.873 67.1963 264.006C83.3709 264.125 98.2775 258.395 110 248.814C110 248.814 110.004 248.823 110.004 248.814C110.014 248.809 110.033 248.8 110.043 248.785C110.062 248.776 110.076 248.766 110.09 248.747C110.166 248.695 110.238 248.643 110.309 248.595C110.882 248.205 111.449 247.814 111.992 247.415C112.431 247.105 112.86 246.786 113.279 246.467C113.594 246.23 113.909 245.987 114.204 245.749C115.129 245.025 116.073 244.25 116.998 243.44C117.369 243.122 117.737 242.798 118.137 242.441L118.218 242.355C118.595 242.017 118.976 241.665 119.343 241.313C120.134 240.57 120.94 239.766 121.793 238.867C125.159 235.335 128.167 231.442 130.732 227.277V312.539H137.73V282.402H141.891C147.988 282.402 152.894 277.49 152.894 271.403V224.469C152.894 221.47 151.702 218.753 149.776 216.792C147.774 214.755 144.975 213.493 141.877 213.493ZM72.3924 130.14C59.9409 136.361 59.9409 136.361 53.7199 148.788C56.9281 155.208 58.4869 158.311 60.9562 160.667C60.8752 160.767 60.7846 160.867 60.6988 160.972C60.1554 161.6 59.5929 162.21 59.0017 162.804C55.7554 159.906 53.8867 156.17 49.8109 148.036C57.338 133.005 57.3381 133.005 72.3876 125.485C87.442 133 87.4419 133 94.9739 148.036C90.9124 156.146 89.0437 159.882 85.8116 162.781C85.2253 162.181 84.658 161.567 84.1193 160.944C84.0287 160.844 83.9429 160.744 83.8571 160.634C86.3074 158.283 87.8615 155.175 91.0649 148.788C84.8439 136.356 84.8439 136.356 72.3924 130.14ZM52.49 169.882C53.5768 169.163 54.6399 168.383 55.66 167.559C56.9853 166.512 58.2772 165.365 59.4927 164.142C59.6644 163.971 59.8264 163.804 59.9933 163.633C60.5844 163.033 61.1469 162.414 61.6904 161.786C61.7714 161.696 61.8429 161.605 61.9239 161.515C67.4442 155.108 71.0433 147.422 72.4305 139.169C73.8082 147.412 77.3978 155.089 82.9085 161.481C82.9848 161.577 83.061 161.667 83.1421 161.757C83.6855 162.39 84.248 163.004 84.8344 163.609C85.0108 163.785 85.1871 163.966 85.3635 164.142C86.5791 165.356 87.8567 166.498 89.1628 167.535C90.1639 168.349 91.227 169.13 92.3234 169.858C92.4473 169.944 92.5713 170.029 92.7 170.106C94.6974 171.429 96.8092 172.595 98.983 173.571C102.639 175.236 106.453 176.402 110.381 177.064C100.947 178.639 92.2567 183.09 85.3587 189.981C78.4513 196.864 73.9989 205.55 72.421 214.978C69.1508 195.636 53.8247 180.324 34.4467 177.064C38.3652 176.412 42.1741 175.251 45.8256 173.599C48.0089 172.614 50.1255 171.448 52.1181 170.129C52.2421 170.048 52.366 169.968 52.49 169.882ZM86.2645 190.886C94.7832 182.385 106.1 177.702 118.132 177.702V176.421C111.635 176.421 105.371 175.07 99.5121 172.409C97.4909 171.495 95.5173 170.415 93.6486 169.197C96.0274 166.822 97.9581 164.004 100.194 159.992C100.199 159.987 100.199 159.987 100.199 159.987C101.948 156.846 103.883 152.986 106.358 148.036C98.4252 132.191 96.0512 127.455 87.5421 122.139C99.9173 111.187 115.172 105.176 130.712 104.086V188.834C113.613 190.024 96.8616 197.116 83.8476 210.114L83.6617 210.3C80.3963 213.56 76.902 216.44 73.2219 218.943C74.0942 208.334 78.6515 198.487 86.2645 190.886ZM142.253 71.0931H148.741C152.317 71.0931 155.229 73.9917 155.229 77.5661V107.584C155.229 110.821 153.876 114.738 150.71 116.047C150.653 116.075 150.591 116.099 150.529 116.123C147.621 117.232 144.837 118.665 142.249 120.392V71.0931H142.253ZM142.253 137.036C142.253 133.395 144.413 128.75 147.831 127.47C147.95 127.427 148.06 127.394 148.16 127.365C150.639 126.689 155.229 125.404 155.229 132.063V179.701C155.229 183.28 152.321 186.174 148.741 186.174H142.253V137.036ZM119.596 21.4322C123.295 25.1256 126.556 29.2426 129.273 33.6689V33.6737C134.149 41.5793 137.291 50.3987 138.535 59.5703C133.83 59.5703 130.712 59.5703 130.712 59.5703V103.439C114.953 104.534 99.4883 110.645 86.97 121.782C85.1299 120.659 83.0038 119.502 80.4916 118.198C78.213 117.018 76.6637 114.738 76.554 112.182C76.5492 112.149 76.5492 112.125 76.5492 112.092C76.063 97.7988 76.1393 73.4633 76.1822 65.3388C76.1869 63.8301 77.4169 62.6069 78.928 62.6069H80.5583C82.0743 62.6069 83.3089 63.8348 83.3089 65.3531V68.3088C83.3089 68.3564 83.3137 68.404 83.3185 68.4516C83.3232 68.4992 83.328 68.542 83.3471 68.5896C83.3566 68.6277 83.3661 68.6657 83.3804 68.6943C83.39 68.7324 83.409 68.7657 83.4233 68.7943C83.4376 68.8323 83.4567 68.8656 83.4758 68.8894C83.4901 68.9228 83.5139 68.9465 83.533 68.9799C83.5664 69.0227 83.6045 69.0608 83.6379 69.0989C83.7094 69.175 83.7856 69.2321 83.8762 69.2797C83.881 69.2892 83.8857 69.2892 83.8905 69.2892C83.9334 69.3083 83.9763 69.3321 84.0192 69.3464C84.0669 69.3654 84.1193 69.3844 84.167 69.3939C84.2051 69.4035 84.248 69.413 84.2909 69.413C84.31 69.4177 84.3338 69.4225 84.3529 69.4177C84.372 69.4225 84.4006 69.4225 84.4244 69.4225H92.0278C92.6476 69.4225 93.1481 68.9228 93.1481 68.304V59.675C93.1481 59.6036 93.1433 59.5417 93.129 59.4799C93.1195 59.4227 93.1004 59.3704 93.0814 59.3133C93.0766 59.299 93.0718 59.2847 93.0671 59.2752C93.0528 59.2371 93.0337 59.199 93.0099 59.1705C92.9908 59.1324 92.967 59.0991 92.9384 59.0705C92.9241 59.042 92.9002 59.0182 92.8764 58.9944C92.8668 58.9849 92.8573 58.9658 92.8382 58.9563C92.8192 58.9277 92.7953 58.9135 92.7667 58.9039C92.7477 58.8849 92.7238 58.8659 92.6952 58.8516C92.6523 58.8183 92.5999 58.7945 92.5522 58.7707C92.495 58.7421 92.4331 58.7231 92.3711 58.7136C92.3091 58.6993 92.2376 58.6945 92.1709 58.6945H89.5537C89.4727 58.6945 89.4012 58.6898 89.3297 58.6755C89.2248 58.6469 89.1152 58.6136 89.0198 58.566C88.9293 58.5137 88.8387 58.447 88.7624 58.3756C88.6861 58.3042 88.6242 58.2091 88.5717 58.1186C88.5241 58.0377 88.4907 57.952 88.4716 57.8616C88.4526 57.7712 88.4383 57.6807 88.4383 57.5856V49.3325C88.4383 49.3135 88.4383 49.2897 88.443 49.2754C88.4478 49.1993 88.4621 49.1326 88.4859 49.066C88.5288 48.9423 88.5813 48.8328 88.6575 48.7328C88.6909 48.6805 88.7386 48.6329 88.7863 48.5853C88.8578 48.5139 88.934 48.4568 89.0198 48.4092C89.0532 48.3949 89.0913 48.3759 89.1199 48.3616C89.1581 48.3473 89.1915 48.333 89.2248 48.3235C89.3297 48.2902 89.4394 48.2759 89.549 48.2759H92.1661C92.2376 48.2759 92.2996 48.2712 92.3615 48.2569C92.4235 48.2474 92.4903 48.2236 92.5475 48.1998C92.6666 48.1522 92.7715 48.0808 92.8573 47.9903C92.8954 47.9523 92.9336 47.9094 92.9574 47.8666C92.9574 47.8618 92.9574 47.8618 92.9574 47.8618C92.9765 47.8333 92.9956 47.8095 93.0099 47.7809C93.0432 47.7286 93.0671 47.6715 93.0861 47.6096C93.1052 47.5715 93.1195 47.5287 93.1243 47.4858C93.1386 47.424 93.1433 47.3573 93.1433 47.2907V38.6617C93.1433 38.0524 92.6476 37.5527 92.0231 37.5527H86.6315C95.9797 29.0046 107.054 23.3312 118.685 20.5421C119 20.8467 119.3 21.1371 119.596 21.4322ZM6.98849 55.2343C7.04093 54.9297 7.11243 54.6299 7.1744 54.3253L7.19347 54.2253C7.29358 53.7589 7.40799 53.2829 7.5224 52.807C7.63204 52.3358 7.75122 51.8694 7.87993 51.3982C7.96574 51.065 8.06108 50.7366 8.17072 50.3511C8.22792 50.1179 8.29943 49.8799 8.38047 49.6276C8.50441 49.1993 8.63789 48.7709 8.78567 48.3045C8.88578 47.9856 8.98588 47.6667 9.10029 47.3478C9.15273 47.1812 9.20994 47.0194 9.26714 46.8576C9.41492 46.4197 9.57223 45.9866 9.73431 45.5487C9.88209 45.1441 10.0346 44.7348 10.2158 44.3065C10.2492 44.2113 10.2873 44.1161 10.3159 44.0257C10.4923 43.5973 10.6687 43.1594 10.8593 42.7168C10.9976 42.3693 11.1454 42.0314 11.3217 41.6364C11.4028 41.446 11.4934 41.2461 11.5982 41.0272C11.7555 40.6654 11.9224 40.3037 12.0988 39.942C12.2799 39.566 12.4611 39.1995 12.6708 38.7902C12.728 38.6569 12.7948 38.5332 12.871 38.3856C13.0617 38.0049 13.2619 37.6241 13.4717 37.2433C13.9102 36.4056 14.3774 35.5727 14.8589 34.7589L14.897 34.7017C14.9352 34.6303 14.9733 34.5732 15.0162 34.5114L15.0543 34.4542C15.2403 34.1306 15.4309 33.8117 15.655 33.4547C15.7027 33.3786 15.7456 33.3072 15.8123 33.1977C15.9601 32.9645 16.1174 32.7265 16.2699 32.4838L16.5512 32.0459C16.7228 31.7841 16.8992 31.5271 17.0708 31.2606L17.3091 30.9084C17.3425 30.8656 17.3711 30.818 17.4283 30.7418L17.7096 30.3372C17.8907 30.0802 18.0671 29.828 18.253 29.571C18.5438 29.1712 18.8441 28.7666 19.154 28.362C19.4543 27.9622 19.7594 27.572 20.0693 27.1769C20.3839 26.7866 20.6985 26.3964 21.0179 26.0204C21.3039 25.6729 21.5947 25.335 21.876 25.0018C22.243 24.583 22.6196 24.1641 23.0058 23.7358C23.2203 23.4978 23.4348 23.2551 23.6732 23.0123C24.6361 21.9748 25.6753 20.9324 26.8432 19.8425C31.2242 15.754 36.1056 12.2939 41.3541 9.54762C50.8501 4.55011 61.5807 1.90857 72.3876 1.90857C89.5347 1.90857 105.709 8.32442 118.137 20.0186C106.334 22.9219 95.1264 28.7666 85.6972 37.5622H84.4292C84.372 37.5622 84.31 37.567 84.2576 37.5765C84.229 37.5813 84.2004 37.586 84.1718 37.5908C84.0001 37.6288 83.8476 37.7098 83.7141 37.8145C83.6855 37.843 83.6617 37.8621 83.6331 37.8906C83.4329 38.0905 83.3089 38.3713 83.3089 38.6712V41.6364C83.3089 43.1499 82.079 44.3779 80.5631 44.3779H79.5763C78.027 44.3636 76.7924 43.069 76.8543 41.5174C76.902 40.4227 76.9497 39.3328 77.0021 38.2476C77.0021 37.8668 76.6827 37.5574 76.2871 37.5574H68.4929C68.0973 37.5574 67.7779 37.8668 67.7779 38.2476C67.9352 42.5264 68.0782 46.8766 68.1879 51.2887C49.3914 61.9786 26.7765 63.654 6.77397 56.3148C6.84071 55.9483 6.91222 55.5866 6.98849 55.2343ZM5.64895 68.561C5.64895 67.9233 5.65372 67.2855 5.68232 66.6334C5.68709 66.186 5.70139 65.7386 5.72999 65.2817C5.8301 63.1732 6.03508 61.0695 6.33064 59.0087C6.38308 58.6374 6.43551 58.2662 6.50702 57.8759C6.55469 57.557 6.60713 57.2476 6.65957 56.9525C14.8446 59.951 23.4634 61.4455 32.0775 61.4455C44.5671 61.4455 57.0425 58.3042 68.2165 52.0312C68.6884 70.8504 68.7218 90.8785 68.1545 112.139V112.192C68.0591 114.767 66.5003 117.065 64.2074 118.251C50.116 125.566 48.314 128.336 39.5522 145.808C28.1303 146.974 16.4892 145.461 5.64895 141.272V68.561ZM15.307 226.259C15.0305 225.806 14.7588 225.34 14.4918 224.888C13.6624 223.441 12.8996 222.004 12.2275 220.604C11.8032 219.724 11.3599 218.758 10.8927 217.653C7.41276 209.438 5.64895 200.714 5.64895 191.714V141.962C14.1295 145.218 23.1059 146.832 32.0775 146.832C34.4562 146.832 36.835 146.713 39.2137 146.484C38.9563 146.989 38.7037 147.503 38.4367 148.036C40.9251 153.005 42.8653 156.888 44.6243 160.034C46.8553 164.037 48.7907 166.85 51.1695 169.225C49.3056 170.439 47.332 171.514 45.3013 172.438C39.4521 175.084 33.193 176.426 26.7145 176.426V177.707C50.6403 177.707 70.2758 196.421 71.7012 219.962C55.5742 230.371 36.1724 233.793 17.8955 230.204C16.9516 228.872 16.1031 227.586 15.307 226.259ZM129.278 225.959C126.737 230.128 123.753 234.021 120.387 237.553C119.558 238.424 118.781 239.2 118.008 239.923C117.632 240.285 117.246 240.647 116.859 240.989L116.783 241.065C116.445 241.37 116.097 241.684 115.734 241.989C114.829 242.779 113.909 243.536 112.998 244.25C112.707 244.488 112.407 244.711 112.116 244.935C111.706 245.244 111.291 245.554 110.853 245.858C110.314 246.253 109.771 246.629 109.213 247.005C109.003 247.143 108.803 247.281 108.593 247.419L108.412 247.548C108.365 247.576 108.312 247.605 108.264 247.638L108.155 247.715C107.778 247.957 107.387 248.205 107.001 248.443C106.582 248.704 106.148 248.971 105.738 249.209L105.557 249.314C105.194 249.528 104.832 249.728 104.465 249.942C103.917 250.256 103.359 250.561 102.768 250.861C102.372 251.07 101.981 251.27 101.567 251.47C101.243 251.636 100.914 251.798 100.566 251.965C100.241 252.117 99.9221 252.274 99.6027 252.412L99.5407 252.441C99.4311 252.498 99.3119 252.55 99.1927 252.607L99.1069 252.645C98.9115 252.736 98.7017 252.821 98.4729 252.921C98.0963 253.093 97.7054 253.245 97.3002 253.416C96.9522 253.564 96.5995 253.702 96.2467 253.84L95.5984 254.097C95.3171 254.202 95.0263 254.311 94.7069 254.425C94.5115 254.502 94.3065 254.568 94.1063 254.64L93.9728 254.687C93.5533 254.835 93.1243 254.987 92.6809 255.13C92.3472 255.235 92.0088 255.349 91.6655 255.449L91.575 255.482C91.451 255.52 91.3366 255.558 91.1793 255.601C90.8647 255.696 90.5405 255.791 90.1639 255.891C90.0686 255.925 89.978 255.948 89.8874 255.977L89.7635 256.015C89.3345 256.134 88.9054 256.244 88.4812 256.344L88.2714 256.401C87.952 256.486 87.6231 256.567 87.2799 256.639C87.0558 256.691 86.8222 256.748 86.5982 256.8C86.2836 256.872 85.9594 256.934 85.5971 257.01C85.4493 257.048 85.3063 257.081 85.1013 257.11C84.7962 257.172 84.5007 257.234 84.1432 257.291C83.9572 257.334 83.7666 257.367 83.5473 257.395C83.0753 257.486 82.5939 257.567 82.1029 257.633C81.7406 257.686 81.3783 257.738 80.9826 257.786C80.7729 257.819 80.5583 257.843 80.3152 257.876L79.8528 257.928C79.481 257.971 79.1092 258.014 78.7183 258.047C76.4634 258.271 74.161 258.376 71.8823 258.357C54.2538 258.233 37.6692 251.303 25.1938 238.843C23.6779 237.329 22.2287 235.735 20.8797 234.107C20.1408 233.207 19.4925 232.384 18.9013 231.589C18.7488 231.38 18.5915 231.175 18.4437 230.966C22.9438 231.803 27.5059 232.227 32.0727 232.227C45.8876 232.227 59.6977 228.386 71.7298 220.699C71.7631 221.371 71.7774 222.037 71.7774 222.713H73.0598C73.0598 221.723 73.0931 220.742 73.1551 219.767C77.0259 217.173 80.6918 214.169 84.1098 210.762L84.2957 210.576C97.1906 197.701 113.78 190.667 130.712 189.477V197.697C130.712 197.697 133.944 197.697 138.793 197.697C138.383 201.766 137.591 205.84 136.423 209.805C135.737 212.151 134.922 214.455 133.978 216.706L133.883 216.801C132.166 218.529 131.041 220.814 130.77 223.365C130.283 224.255 129.778 225.131 129.278 225.959ZM145.895 271.412C145.895 273.644 144.103 275.424 141.877 275.424H141.238C139.245 275.196 137.715 273.521 137.715 271.46V224.526C137.715 224.379 137.725 224.245 137.744 224.112C137.753 224.017 137.763 223.922 137.792 223.822C137.792 223.765 137.801 223.717 137.811 223.669C137.839 223.536 137.873 223.403 137.92 223.279C138.359 222.032 139.45 221.047 140.69 220.657C140.766 220.618 140.852 220.609 140.919 220.599C141.186 220.538 141.457 220.514 141.734 220.514C143.679 220.514 145.648 222.075 145.876 224.112C145.886 224.245 145.895 224.379 145.895 224.526V271.412Z" fill="#850D00"/>
<path d="M172.525 238.9V282.402H179.514V233.912H172.611L172.525 238.9Z" fill="#850D00"/>
<path d="M263.266 282.402V214.531H259.844C255.825 214.531 250.472 217.206 248.093 220.176V185.422C248.093 181.566 244.961 178.439 241.1 178.439V282.402H248.093V231.313C248.093 226.711 251.516 223.588 256.273 222.251V282.402H263.266Z" fill="#850D00"/>
<path d="M304.324 271.974V266.51H297.336V271.612C297.336 272.94 296.878 274.254 295.953 275.21C293.264 277.995 289.155 275.701 289.155 272.45V254.33L297.345 251.379C301.54 249.871 304.329 245.892 304.329 241.446V225.383C304.329 219.333 299.342 214.46 293.298 214.398C287.177 214.326 282.167 219.552 282.167 225.668V272.455C282.167 279.465 288.869 284.901 295.92 283.097C300.925 281.807 304.324 277.138 304.324 271.974ZM289.15 225.545C289.15 223.393 290.781 221.499 292.936 221.375C295.262 221.247 297.336 223.074 297.336 225.378V238.871C297.336 241.465 295.886 243.845 293.584 245.049L289.155 246.134V225.545H289.15Z" fill="#850D00"/>
<path d="M394.032 213.483C387.93 213.483 383.02 218.385 383.02 224.477V272.449C383.02 278.536 387.93 283.434 394.032 283.434C400.129 283.434 405.187 278.531 405.187 272.449V224.477C405.182 218.385 400.124 213.483 394.032 213.483ZM398.193 272.449C398.193 274.676 396.263 276.456 394.032 276.456C391.801 276.456 390.013 274.676 390.013 272.449V224.477C390.013 222.25 391.801 220.47 394.032 220.47C396.263 220.47 398.193 222.25 398.193 224.477V272.449Z" fill="#850D00"/>
<path d="M206.888 282.406V224.477C206.888 222.283 208.914 220.527 210.954 220.475C212.994 220.522 215.011 222.283 215.011 224.477V282.406H215.073H221.995H222.066V224.477C222.066 224.125 222.052 223.773 222.004 223.421C221.775 220.813 220.622 218.485 218.882 216.738C216.961 214.811 214.329 213.588 211.402 213.502C211.221 213.488 211.026 213.488 210.845 213.488C210.725 213.488 210.616 213.488 210.492 213.502C207.565 213.588 204.929 214.811 203.012 216.738C201.277 218.485 200.123 220.813 199.88 223.421C199.842 223.773 199.833 224.125 199.833 224.477V282.406H199.895H206.831H206.888Z" fill="#850D00"/>
<path d="M351.78 253.856V282.408H358.773V253.856V227.002C358.773 224.033 361.3 221.51 364.275 221.51H367.397V214.528H364.894C357.644 214.528 351.78 220.396 351.78 227.621V253.856Z" fill="#850D00"/>
<path d="M179.43 214.616H172.613V221.422H179.43V214.616Z" fill="#850D00"/>
<path d="M323.959 238.9V282.402H330.952V233.912H324.05L323.959 238.9Z" fill="#850D00"/>
<path d="M330.866 214.616H324.049V221.422H330.866V214.616Z" fill="#850D00"/>
</svg>
