<?xml version="1.0" encoding="utf-8"?><svg xmlns="http://www.w3.org/2000/svg" xmlns:xlink="http://www.w3.org/1999/xlink"><symbol fill="none" viewBox="0 0 9 14" id="arrow-left" xmlns="http://www.w3.org/2000/svg"><path fill="currentColor" stroke="currentColor" stroke-width=".506" d="M.357 6.646 6.633.359l1.202 1.204-4.886 4.904-.178.178.178.178 4.886 4.906-1.201 1.204z"/></symbol><symbol fill="none" viewBox="0 0 9 14" id="arrow-right" xmlns="http://www.w3.org/2000/svg"><path fill="currentColor" stroke="currentColor" stroke-width=".506" d="m7.834 6.645-6.275 6.287-1.203-1.205 4.886-4.904.178-.177-.178-.18L.356 1.563 1.558.357z"/></symbol><symbol fill="none" viewBox="0 0 35 35" id="carousel" xmlns="http://www.w3.org/2000/svg"><g fill="currentColor" clip-path="url(#ca)"><path d="M12.396 4.01h10.208V1.823H12.396zm11.302 1.094v24.792h2.188V5.104zm-1.094 25.885H12.396v2.188h10.208zm-11.302-1.093V5.104H9.115v24.792zm1.094 1.093c-.604 0-1.094-.49-1.094-1.093H9.115a3.28 3.28 0 0 0 3.281 3.28zm11.302-1.093c0 .604-.49 1.093-1.094 1.093v2.188a3.28 3.28 0 0 0 3.282-3.281zM22.604 4.01c.604 0 1.094.49 1.094 1.094h2.188a3.28 3.28 0 0 0-3.282-3.281zM12.396 1.823a3.28 3.28 0 0 0-3.281 3.281h2.187c0-.604.49-1.094 1.094-1.094zm16.799 4.375a1.094 1.094 0 0 0 0 2.187zm0 20.416a1.094 1.094 0 0 0 0 2.188zm5.44-.364V8.75h-2.187v17.5zm-2.551 2.552a2.55 2.55 0 0 0 2.552-2.552h-2.188a.365.365 0 0 1-.364.364zm0-20.417c.2 0 .364.163.364.365h2.188a2.55 2.55 0 0 0-2.553-2.552zm0-2.187h-2.889v2.187h2.889zm-2.889 22.604h2.889v-2.188h-2.889zM5.794 8.385a1.094 1.094 0 0 0 0-2.187zm0 20.417a1.094 1.094 0 0 0 0-2.188zM2.552 26.25V8.75H.365v17.5zm.365.364a.365.365 0 0 1-.365-.364H.365a2.55 2.55 0 0 0 2.552 2.552zm0-20.416A2.55 2.55 0 0 0 .365 8.75h2.187c0-.202.163-.365.365-.365zm0 2.187h2.877V6.198H2.917zm2.877 18.23H2.917v2.187h2.877z"/></g><defs><clipPath id="ca"><path fill="#fff" d="M0 0h35v35H0z"/></clipPath></defs></symbol><symbol fill="none" viewBox="0 0 35 35" id="collaboration" xmlns="http://www.w3.org/2000/svg"><g clip-path="url(#da)"><path fill="currentColor" stroke="currentColor" stroke-width=".2" d="M17.5 1.429a5.863 5.863 0 0 1 5.863 5.863q0 .018-.003.034a11.6 11.6 0 0 1 4.726 5.01 11.6 11.6 0 0 1 1.048 6.782 5.875 5.875 0 1 1-1.636-.175q.109-.718.116-1.443l-.005-.317a10.07 10.07 0 0 0-4.553-8.11 5.82 5.82 0 0 1-5.556 4.082 5.83 5.83 0 0 1-5.557-4.082A10.08 10.08 0 0 0 7.386 17.5q.007.725.115 1.443a5.853 5.853 0 1 1-3.734 10.519 5.855 5.855 0 0 1 2.097-10.344A11.59 11.59 0 0 1 11.64 7.324l-.002-.032A5.864 5.864 0 0 1 17.5 1.429Zm11.816 19.483a4.2 4.2 0 0 0-5.488 5.486 4.2 4.2 0 0 0 3.88 2.593 4.204 4.204 0 0 0 4.2-4.199 4.2 4.2 0 0 0-2.592-3.88Zm-22.025-.32a4.2 4.2 0 1 0 0 8.4 4.2 4.2 0 0 0 0-8.4Zm11.816-17.18a4.2 4.2 0 1 0-3.215 7.76 4.2 4.2 0 0 0 3.215-7.76Z"/></g><defs><clipPath id="da"><path fill="#fff" d="M0 0h35v35H0z"/></clipPath></defs></symbol><symbol fill="none" viewBox="0 0 40 40" id="delivery" xmlns="http://www.w3.org/2000/svg"><path fill="currentColor" d="M12.349 25.112a1.234 1.234 0 0 0 2.378-.657zM5.265 7.772a1.234 1.234 0 1 0-.66 2.378zM33.213 25.87a1.234 1.234 0 1 0-.621-2.388zm-16.437 3.016c.51 1.844-.608 3.789-2.589 4.304l.621 2.388c3.252-.845 5.24-4.117 4.347-7.349zm-2.589 4.304c-1.993.518-3.993-.64-4.507-2.498l-2.379.657c.889 3.216 4.267 5.071 7.507 4.23zM9.68 30.692c-.51-1.844.609-3.79 2.59-4.304L11.647 24c-3.252.845-5.24 4.117-4.347 7.349zm2.59-4.304c1.992-.518 3.993.64 4.506 2.498l2.38-.657c-.89-3.216-4.268-5.071-7.508-4.23zm2.457-1.933-3.54-12.816-2.38.657 3.542 12.816zM8.068 8.55l-2.803-.778-.66 2.378 2.803.778zm3.119 3.089c-.417-1.508-1.61-2.67-3.119-3.089l-.66 2.378c.7.194 1.222.723 1.4 1.368zm7.09 18.113 14.936-3.882-.621-2.388-14.937 3.881z"/><path stroke="currentColor" stroke-width="2.468" d="M15.736 14.363c-.798-2.888-1.197-4.332-.52-5.47.678-1.138 2.167-1.525 5.145-2.299l3.158-.82c2.978-.774 4.467-1.161 5.64-.504 1.172.656 1.571 2.1 2.37 4.989l.846 3.063c.798 2.888 1.197 4.332.52 5.47-.678 1.137-2.167 1.524-5.145 2.298l-3.158.821c-2.978.774-4.467 1.16-5.64.504-1.173-.657-1.572-2.1-2.37-4.989z" opacity=".5"/></symbol><symbol fill="none" viewBox="0 0 24 22" id="dots" xmlns="http://www.w3.org/2000/svg"><path fill="currentColor" d="M4.8 12.422c2.526 0 4.6 2.107 4.6 4.69 0 2.581-2.074 4.688-4.6 4.688S.2 19.693.2 17.11s2.074-4.689 4.6-4.69Zm14.4 0c2.526 0 4.6 2.108 4.6 4.69 0 2.581-2.074 4.688-4.6 4.688s-4.6-2.107-4.6-4.689 2.074-4.69 4.6-4.69ZM4.8 14.467c-1.434 0-2.6 1.193-2.6 2.644s1.166 2.645 2.6 2.645 2.6-1.193 2.6-2.645-1.166-2.644-2.6-2.644m14.4 0c-1.434 0-2.6 1.193-2.6 2.644s1.166 2.645 2.6 2.645 2.6-1.193 2.6-2.645-1.166-2.644-2.6-2.644M12 .2c2.526 0 4.6 2.107 4.6 4.689s-2.074 4.69-4.6 4.69-4.6-2.108-4.6-4.69S9.474.2 12 .2m0 2.044c-1.434 0-2.6 1.193-2.6 2.645s1.166 2.644 2.6 2.644 2.6-1.193 2.6-2.644-1.166-2.645-2.6-2.645"/></symbol><symbol fill="none" viewBox="0 0 31 23" id="email" xmlns="http://www.w3.org/2000/svg"><path fill="currentColor" fill-rule="evenodd" d="m6.782 1.15 8.33 6.077L23.622.94c1.3-1.026 2.968-1.204 4.33-.519 1.384.697 2.316 2.209 2.316 4.273V17.94c0 .75-.095 1.827-.667 2.734-.615.973-1.692 1.619-3.349 1.619h-3.33a.797.797 0 0 1-.796-.797v-9.23l-6.535 4.861a.8.8 0 0 1-.952 0l-6.497-4.856v5.6a.796.796 0 1 1-1.593 0v-7.19a.796.796 0 0 1 1.273-.637l7.295 5.45 7.33-5.451a.796.796 0 0 1 1.272.639V20.7h2.533c1.186 0 1.717-.426 2.002-.877.326-.517.42-1.22.42-1.883V4.695c0-1.565-.677-2.467-1.438-2.85-.78-.392-1.79-.318-2.634.353l-.022.017-8.991 6.64a.8.8 0 0 1-.943.004L5.833 2.43c-.79-.588-1.958-.944-2.854-.808-.428.065-.751.233-.973.495s-.413.704-.413 1.453v14.988c0 1.053.376 1.554.736 1.812.404.29.914.363 1.246.334l.07-.003h2.107a.796.796 0 1 1 0 1.593H3.678c-.617.046-1.51-.079-2.278-.63C.573 21.07 0 20.06 0 18.558V3.57c0-1.023.266-1.862.79-2.481C1.312.469 2.02.156 2.74.047c1.396-.212 2.982.315 4.042 1.104" clip-rule="evenodd"/></symbol><symbol fill="none" viewBox="0 0 38 38" id="goal" xmlns="http://www.w3.org/2000/svg"><path stroke="currentColor" stroke-linecap="round" stroke-linejoin="round" stroke-opacity=".5" stroke-width="2" d="m23.75 14.25-3.958 3.958m3.958-3.958V9.5l4.75-4.75V9.5h4.75l-4.75 4.75z"/><path stroke="currentColor" stroke-linecap="round" stroke-linejoin="round" stroke-width="2" d="M19.523 4.75H19A14.25 14.25 0 1 0 33.25 19v-.523"/><path stroke="currentColor" stroke-linecap="round" stroke-linejoin="round" stroke-width="2" d="M26.758 20.583a7.917 7.917 0 1 1-9.341-9.341"/></symbol><symbol fill="none" viewBox="0 0 37 37" id="graph" xmlns="http://www.w3.org/2000/svg"><path stroke="currentColor" stroke-width="2.256" d="M12.033 7.52a4.512 4.512 0 1 1-9.025 0 4.512 4.512 0 0 1 9.025 0Zm21.057 0a4.512 4.512 0 1 1-9.025 0 4.512 4.512 0 0 1 9.025 0ZM12.033 28.578a4.512 4.512 0 1 1-9.025 0 4.512 4.512 0 0 1 9.025 0Zm21.057 0a4.512 4.512 0 1 1-9.025 0 4.512 4.512 0 0 1 9.025 0Z"/><path stroke="currentColor" stroke-linecap="round" stroke-width="2.256" d="M12.033 28.578h12.033M12.033 7.52h12.033m4.511 16.546V12.033M7.52 24.066V12.033" opacity=".5"/></symbol><symbol fill="none" viewBox="0 0 35 35" id="growth" xmlns="http://www.w3.org/2000/svg"><g clip-path="url(#ja)"><path fill="currentColor" d="M1.46 32.081a1.458 1.458 0 1 0 0 2.917h32.08a1.46 1.46 0 1 0 0-2.917z"/><path stroke="currentColor" stroke-width="2" d="M6.412 22.876h1.754c1.362 0 2.499 1.137 2.499 2.499v8.17a.46.46 0 0 1-.457.454H4.373a.46.46 0 0 1-.451-.367l-.009-.09v-8.167c0-1.362 1.138-2.499 2.5-2.499Zm10.216-4.963h1.744c1.361 0 2.499 1.137 2.499 2.5v13.133a.46.46 0 0 1-.457.453h-5.828a.46.46 0 0 1-.448-.368l-.009-.089v-13.13c0-1.361 1.138-2.499 2.5-2.499Zm10.206-4.37h1.744c1.365 0 2.509 1.141 2.509 2.499v17.503a.46.46 0 0 1-.46.453h-5.835a.46.46 0 0 1-.449-.367l-.008-.09v-17.5c0-1.361 1.137-2.498 2.499-2.498Z"/><path stroke="currentColor" stroke-opacity=".5" stroke-width="2" d="M29.763 1.001c.713 0 1.323.613 1.323 1.313v4.3a.456.456 0 0 1-.783.324.46.46 0 0 1-.133-.324V2.7l-1.655 1.437C19.972 11.552 10.912 16.215 1.54 17.953a.457.457 0 0 1-.526-.37v-.003l-.009-.09a.46.46 0 0 1 .37-.445c9.105-1.687 17.898-6.186 26.252-13.369l2.045-1.758H25.47a.46.46 0 0 1-.457-.46.46.46 0 0 1 .367-.448l.09-.009z"/></g><defs><clipPath id="ja"><path fill="#fff" d="M0 0h35v35H0z"/></clipPath></defs></symbol><symbol fill="none" viewBox="0 0 24 12" id="link" xmlns="http://www.w3.org/2000/svg"><path fill="currentColor" d="M18 .2c3.201 0 5.8 2.598 5.8 5.8s-2.6 5.8-5.8 5.8h-4.6V9.92H18A3.923 3.923 0 0 0 21.92 6 3.923 3.923 0 0 0 18 2.08h-4.6V.2zM6 .2h4.6v1.88H6A3.923 3.923 0 0 0 2.08 6 3.923 3.923 0 0 0 6 9.92h4.6v1.88H6A5.8 5.8 0 0 1 .2 6C.2 2.798 2.798.2 6 .2M16.6 5v2H7.4V5z"/></symbol><symbol fill="none" viewBox="0 0 30 30" id="linkedin" xmlns="http://www.w3.org/2000/svg"><g fill="currentColor" clip-path="url(#la)"><path d="M3.52.321C1.48.321 0 1.728 0 3.665s1.451 3.341 3.45 3.341c1.036 0 1.929-.336 2.582-.972.627-.61.972-1.452.971-2.384C6.958 1.69 5.525.32 3.52.32M5.122 5.1c-.405.393-.984.602-1.673.602-1.262 0-2.143-.837-2.143-2.036 0-1.22.89-2.038 2.214-2.038 1.294 0 2.15.806 2.179 2.038-.001.563-.205 1.071-.577 1.434M.626 29.679h5.867V8.109H.626zM1.931 9.414h3.256v18.959H1.931zm20.033-1.305c-2.72 0-4.387.939-5.351 1.822l-.184-1.822H9.791v21.57h6.501V18.341c0-.488.198-1.502.322-1.77.785-1.691 1.845-1.691 3.449-1.691 1.848 0 3.41 1.733 3.41 3.784V29.68H30V17.493c0-6.448-4.166-9.384-8.036-9.384m6.73 20.264h-3.916v-9.709c0-2.759-2.16-5.09-4.715-5.09-1.64 0-3.497 0-4.634 2.449-.234.505-.443 1.718-.443 2.319v10.031h-3.89V9.414h4.152l.267 2.64h1.07l.19-.309c.436-.701 1.813-2.332 5.189-2.332 3.241 0 6.73 2.528 6.73 8.078z"/></g><defs><clipPath id="la"><path d="M0 0h30v30H0z"/></clipPath></defs></symbol><symbol fill="none" viewBox="0 0 24 24" id="offer" xmlns="http://www.w3.org/2000/svg"><path fill="currentColor" d="M19.2 4.8V2.4L16.8 0h-6L8.4 2.4v2.4H3.6V18s1.2 2.4 2.4 2.4h15.6S24 19.224 24 18V4.8zM2.4 8.4H0v13.2C0 22.932 1.068 24 2.4 24h16.8c1.332 0 2.4-1.068 2.4-2.4H2.4zm8.4-4.8c0-.66.636-1.2 1.2-1.2h3.6c.552 0 1.2.648 1.2 1.2v1.2h-6zM3.6 4.8H24V18c0 1.32-1.08 2.4-2.4 2.4H6c-1.32 0-2.4-1.08-2.4-2.4z"/></symbol><symbol fill="none" viewBox="0 0 24 21" id="pencil" xmlns="http://www.w3.org/2000/svg"><path fill="currentColor" stroke="transparent" stroke-width=".7" d="M23.65 16.099v4.551H11.52l4.623-4.551zM15.405 1.018a2.35 2.35 0 0 1 3.283 0L20.3 2.606l.002.001a2.23 2.23 0 0 1 0 3.214l-.002.002-3.507 3.452L5.244 20.65H.35v-4.808L11.832 4.536zm-1.437 4.148L2.42 16.536l-.105.103v2.086h2.108l.101-.101 11.547-11.37.253-.25-.253-.25-1.613-1.588-.246-.241z"/></symbol><symbol fill="none" viewBox="0 0 40 40" id="people" xmlns="http://www.w3.org/2000/svg"><path stroke="currentColor" stroke-width="1.86" d="M23.147 6.613a3.307 3.307 0 1 1-6.613 0 3.307 3.307 0 0 1 6.613 0Z"/><path fill="currentColor" d="m19.84 24.8 1.077-.615a1.24 1.24 0 0 0-2.153 0zM9.607 19.114l3.597 1.198.784-2.352-3.597-1.2zm4.144 2.358-2.062 5.36 2.315.89 2.062-5.36zm15.538-4.711-3.596 1.199.784 2.352 3.597-1.198zm-5.674 5.6 2.062 5.36 2.314-.89-2.061-5.36zm-5.303 7.613 2.605-4.559-2.153-1.23-2.606 4.559zm9.778-18.13-3.138.672.52 2.425 3.137-.672zm-13.361.672-3.138-.672-.52 2.425 3.138.672zm4.035 12.899 2.605 4.56 2.153-1.231-2.605-4.56zm6.188-12.899c-.176.038-.258.056-.34.072l.503 2.429.357-.076zM14.21 14.941l.357.076.502-2.429c-.081-.016-.163-.034-.34-.072zm10.404-2.353a23.6 23.6 0 0 1-9.545 0l-.502 2.429c3.48.72 7.07.72 10.549 0zM15.12 31.827c1.32 0 2.537-.707 3.192-1.853l-2.154-1.23a1.2 1.2 0 0 1-1.038.602zm10.557-4.105a1.196 1.196 0 0 1-1.116 1.624v2.48c2.58 0 4.356-2.587 3.43-4.995zm.016-9.762c-.367.122-.758.243-1.075.439l1.303 2.11c-.015.01-.002-.001.093-.038.1-.038.236-.083.463-.159zm.237 3.512a14 14 0 0 1-.171-.459c-.033-.096-.033-.113-.03-.096l-2.458.336c.05.37.205.748.344 1.109zm-1.312-3.073a2.89 2.89 0 0 0-1.347 2.854l2.457-.336a.41.41 0 0 1 .193-.408zm5.556-2.865c0 .556-.357 1.05-.885 1.227l.785 2.353a3.77 3.77 0 0 0 2.58-3.58zM11.689 26.83c-.926 2.408.851 4.996 3.431 4.996v-2.48a1.196 1.196 0 0 1-1.116-1.625zm1.515-6.519c.226.076.362.121.462.16.096.036.108.046.094.037l1.303-2.11c-.318-.196-.708-.317-1.075-.44zm2.861 2.05c.14-.361.294-.74.344-1.109l-2.457-.336c.003-.017.003 0-.03.096a14 14 0 0 1-.171.459zM13.76 20.51a.41.41 0 0 1 .192.407l2.457.336a2.89 2.89 0 0 0-1.346-2.854zm-6.733-4.976a3.77 3.77 0 0 0 2.58 3.58l.784-2.353a1.29 1.29 0 0 1-.884-1.227zm2.48 0c0-.824.76-1.438 1.565-1.265l.52-2.425a3.774 3.774 0 0 0-4.565 3.69zm11.862 14.44a3.68 3.68 0 0 0 3.192 1.853v-2.48c-.43 0-.826-.23-1.039-.603zm11.285-14.44a3.774 3.774 0 0 0-4.564-3.69l.52 2.425a1.294 1.294 0 0 1 1.564 1.265z"/><path stroke="currentColor" stroke-linecap="round" stroke-width="1.86" d="M32.164 23.974c2.618 1.316 4.21 3.054 4.21 4.96 0 4.109-7.403 7.44-16.534 7.44s-16.533-3.331-16.533-7.44c0-1.906 1.592-3.644 4.21-4.96" opacity=".5"/></symbol><symbol fill="none" viewBox="0 0 28 30" id="resume" xmlns="http://www.w3.org/2000/svg"><path stroke="currentColor" stroke-linecap="round" stroke-width="2.089" d="M8.05 15h1.393m9.75 0H13.62m5.572-5.571H17.8m-4.178 0h-5.57M8.05 20.571h6.964"/><path stroke="currentColor" stroke-linecap="round" stroke-width="1.5" d="M1.086 17.786v-5.572c0-5.252 0-7.878 1.632-9.51s4.258-1.632 9.51-1.632h2.786c5.252 0 7.879 0 9.51 1.632.91.91 1.312 2.129 1.49 3.94m.142 5.57v5.571c0 5.253 0 7.88-1.632 9.51-1.631 1.632-4.258 1.632-9.51 1.632h-2.786c-5.252 0-7.878 0-9.51-1.631-.91-.91-1.312-2.129-1.49-3.94"/></symbol><symbol fill="none" viewBox="0 0 16 16" id="sparkle" xmlns="http://www.w3.org/2000/svg"><path stroke="currentColor" stroke-linecap="round" stroke-linejoin="round" stroke-width="1.898" d="M9.954 10.273 8.41 14.52a.536.536 0 0 1-1.004 0l-1.542-4.247a.54.54 0 0 0-.318-.319L1.298 8.41a.535.535 0 0 1 0-1.004l4.248-1.542a.54.54 0 0 0 .318-.318L7.41 1.298a.535.535 0 0 1 1.004 0l1.544 4.248a.54.54 0 0 0 .318.318l4.248 1.544a.535.535 0 0 1 0 1.005l-4.248 1.544a.54.54 0 0 0-.32.316"/></symbol><symbol fill="none" viewBox="0 0 26 26" id="star" xmlns="http://www.w3.org/2000/svg"><path stroke="currentColor" stroke-linecap="round" stroke-linejoin="round" stroke-width="1.5" d="m16.273 16.825-2.662 7.323a.923.923 0 0 1-1.731 0l-2.657-7.323a.92.92 0 0 0-.55-.55l-7.321-2.662a.923.923 0 0 1 0-1.73l7.321-2.659a.92.92 0 0 0 .55-.55l2.662-7.322a.923.923 0 0 1 1.73 0l2.662 7.323a.92.92 0 0 0 .55.55l7.321 2.662a.923.923 0 0 1 0 1.73l-7.321 2.663a.92.92 0 0 0-.554.545"/></symbol><symbol fill="none" viewBox="0 0 31 31" id="star-filled" xmlns="http://www.w3.org/2000/svg"><path fill="currentColor" d="m19.606 20.3-3.362 9.247a1.166 1.166 0 0 1-2.186 0L10.7 20.3a1.17 1.17 0 0 0-.693-.694L.76 16.244a1.167 1.167 0 0 1 0-2.186l9.248-3.357a1.17 1.17 0 0 0 .693-.693L14.064.76a1.166 1.166 0 0 1 2.186 0l3.362 9.248a1.17 1.17 0 0 0 .694.693l9.247 3.363a1.166 1.166 0 0 1 0 2.186l-9.247 3.362a1.17 1.17 0 0 0-.7.688"/></symbol><symbol fill="none" viewBox="0 0 35 35" id="talk" xmlns="http://www.w3.org/2000/svg"><g fill="currentColor" clip-path="url(#ta)"><path d="M22.361 25.278a.97.97 0 0 1-.972.972H7.778c-.214 0-.418.194-.593.32l-3.296 2.597V13.61a.973.973 0 0 1 .972-.972h3.753v-1.945H4.86a2.917 2.917 0 0 0-2.917 2.917v17.5a.97.97 0 0 0 .545.865.97.97 0 0 0 .972-.097l5.007-3.685h13.067a2.69 2.69 0 0 0 2.77-2.79v-1.099H22.36z"/><path d="M31.111 12.853v9.45l-3.403-2.655a.97.97 0 0 0-.593-.204H13.611a.973.973 0 0 1-.972-.972V6.805a.97.97 0 0 1 .972-.972h8.264a7.3 7.3 0 0 1 .272-1.944h-8.536a2.917 2.917 0 0 0-2.917 2.916v11.667a2.917 2.917 0 0 0 2.917 2.917h13.174l4.647 3.607a.97.97 0 0 0 .972.107.97.97 0 0 0 .554-.875V12.026a7.3 7.3 0 0 1-1.847.827"/><path d="M29.167 10.694a4.861 4.861 0 1 0 0-9.722 4.861 4.861 0 0 0 0 9.722"/></g><defs><clipPath id="ta"><path fill="#fff" d="M0 0h35v35H0z"/></clipPath></defs></symbol><symbol fill="none" viewBox="0 0 38 38" id="team" xmlns="http://www.w3.org/2000/svg"><path fill="currentColor" d="M19 9.485c1.47 0 2.627-1.24 2.627-2.627A2.604 2.604 0 0 0 19 4.23a2.604 2.604 0 0 0-2.627 2.628A2.61 2.61 0 0 0 19 9.485m0-3.874c.698 0 1.158.542 1.158 1.158S19.616 7.927 19 7.927a1.14 1.14 0 0 1-1.158-1.158c0-.616.46-1.158 1.158-1.158M8.32 24.188a2.604 2.604 0 0 0-2.627 2.627 2.604 2.604 0 0 0 2.627 2.628c1.395 0 2.627-1.158 2.627-2.628a2.604 2.604 0 0 0-2.627-2.627m0 3.71c-.616 0-1.158-.54-1.158-1.157a1.14 1.14 0 0 1 1.158-1.158c.616 0 1.158.542 1.158 1.158S9.018 27.9 8.32 27.9"/><path fill="currentColor" d="M29.68 21.479a7.46 7.46 0 0 0-5.967 2.932l-4.015-3.66V16.5c3.785-.356 6.805-3.607 6.805-7.474A7.46 7.46 0 0 0 19 1.521c-4.178 0-7.504 3.4-7.504 7.497 0 3.94 3.029 7.125 6.806 7.473V20.7l-4.03 3.68a7.48 7.48 0 0 0-5.952-2.908 7.47 7.47 0 0 0-7.504 7.51c0 4.179 3.407 7.504 7.504 7.504s7.503-3.325 7.503-7.504a7.6 7.6 0 0 0-.757-3.317l3.904-3.592 3.956 3.607a7.54 7.54 0 0 0-.75 3.302c0 4.179 3.407 7.504 7.504 7.504a7.46 7.46 0 0 0 7.504-7.504 7.46 7.46 0 0 0-7.504-7.503M4.943 33.977a2.81 2.81 0 0 1 2.687-1.981h1.395c1.247 0 2.308.809 2.687 1.981a6.03 6.03 0 0 1-6.769 0m7.912-1.016c-.735-1.396-2.19-2.36-3.83-2.36H7.63c-1.707 0-3.17.912-3.867 2.315a6.02 6.02 0 0 1-1.47-3.941 6.044 6.044 0 0 1 6.034-6.034c3.251 0 6.034 2.709 6.034 6.034a6.05 6.05 0 0 1-1.506 3.986M19 15.05a6 6 0 0 1-3.377-1.039 2.81 2.81 0 0 1 2.687-1.981h1.395c1.247 0 2.308.809 2.687 1.981A6 6 0 0 1 19 15.052m-6.034-6.033A6.044 6.044 0 0 1 19 2.984a6.044 6.044 0 0 1 6.034 6.034 6 6 0 0 1-1.507 3.978c-.734-1.396-2.19-2.36-3.83-2.36h-1.395c-1.707 0-3.169.912-3.867 2.315a5.97 5.97 0 0 1-1.469-3.933m13.33 24.96a2.81 2.81 0 0 1 2.686-1.982h1.396c1.247 0 2.308.809 2.687 1.981a6 6 0 0 1-3.377 1.04 6.06 6.06 0 0 1-3.392-1.04m7.911-1.017c-.734-1.396-2.189-2.36-3.83-2.36h-1.395c-1.707 0-3.169.912-3.866 2.315a6.02 6.02 0 0 1-1.47-3.941 6.044 6.044 0 0 1 6.034-6.034 6.044 6.044 0 0 1 6.034 6.034 6 6 0 0 1-1.507 3.986"/><path fill="currentColor" d="M29.68 24.188a2.604 2.604 0 0 0-2.627 2.627 2.604 2.604 0 0 0 2.627 2.628 2.604 2.604 0 0 0 2.627-2.628 2.604 2.604 0 0 0-2.627-2.627m0 3.71c-.616 0-1.158-.54-1.158-1.157a1.14 1.14 0 0 1 1.158-1.158c.69 0 1.158.542 1.158 1.158s-.46 1.158-1.158 1.158"/></symbol></svg>